<svg width="29" height="24" viewBox="0 0 29 24" fill="none" xmlns="http://www.w3.org/2000/svg">
<rect width="29" height="24" fill="#545269"/>
<path d="M6.05177 5.9L6.75056 5.17708V5.9H6.05177Z" fill="#F0EDED" stroke="#F0EDED"/>
<path d="M22.25 5.17708L22.9488 5.9H22.25V5.17708Z" fill="#F0EDED" stroke="#F0EDED"/>
<path d="M8.50153 2.24855L8.50152 2.24853C8.48897 2.23119 8.45231 2.18058 8.39312 2.1316L6.4216 0.5H22.5779L20.6077 2.13053C20.547 2.18034 20.5098 2.23206 20.4973 2.24934L20.4972 2.24947L20.4972 2.24949C20.4928 2.25434 20.4858 2.26217 20.4784 2.27071C20.4663 2.28477 20.4469 2.30793 20.4262 2.33843C20.424 2.34134 20.4217 2.34443 20.4193 2.34764C20.4062 2.3656 20.388 2.39283 20.3708 2.42832C20.3375 2.49642 20.3253 2.55694 20.3209 2.5805L20.3206 2.58134C20.3183 2.58913 20.3148 2.60135 20.3111 2.61535C20.307 2.63143 20.3019 2.65281 20.2975 2.67827C20.2906 2.70722 20.2831 2.74919 20.2831 2.8V5.9H8.71644V2.8C8.71644 2.75121 8.70953 2.71058 8.70283 2.68179C8.69854 2.65534 8.69331 2.63284 8.68877 2.61536C8.68547 2.60264 8.68156 2.58916 8.67832 2.57833C8.67347 2.55275 8.66013 2.4896 8.6246 2.41997L8.6247 2.41992L8.61972 2.41064C8.60404 2.38144 8.58836 2.35883 8.57731 2.34395C8.57677 2.34323 8.57625 2.34253 8.57573 2.34184C8.55386 2.30911 8.53318 2.28445 8.52029 2.2696C8.51294 2.26113 8.50587 2.25332 8.50153 2.24855ZM8.55582 2.31675C8.55582 2.31675 8.55654 2.31762 8.55718 2.3184L8.55657 2.31766L8.55582 2.31675ZM8.59985 2.38085L8.59936 2.38L8.59985 2.38085Z" fill="#F0EDED" stroke="#F0EDED"/>
<path d="M25.1164 0.828412V5.42288L22.649 2.87043L25.1164 0.828412Z" fill="#F0EDED" stroke="#F0EDED"/>
<path d="M3.88379 5.42287V0.828411L6.35122 2.87043L3.88379 5.42287Z" fill="#F0EDED" stroke="#F0EDED"/>
<path d="M25.3367 23.2454H3.13672V7.04544H25.3367V23.2454ZM8.92005 10.6454C9.07408 10.6454 9.23791 10.6082 9.38677 10.5358C9.38673 10.539 9.38672 10.5422 9.38672 10.5454V12.9454C9.38672 15.2912 11.655 17.0454 14.2367 17.0454C16.8184 17.0454 19.0867 15.2912 19.0867 12.9454V10.5454C19.0867 10.5422 19.0867 10.539 19.0867 10.5358C19.2355 10.6082 19.3994 10.6454 19.5534 10.6454C20.0033 10.6454 20.5367 10.3275 20.5367 9.74544C20.5367 8.50251 19.353 7.64544 18.1034 7.64544C16.8537 7.64544 15.6701 8.50251 15.6701 9.74544C15.6701 10.3275 16.2035 10.6454 16.6534 10.6454C16.8074 10.6454 16.9712 10.6082 17.1201 10.5358C17.1201 10.539 17.1201 10.5422 17.1201 10.5454V12.9454C17.1201 14.1286 15.9189 15.2454 14.2367 15.2454C12.5545 15.2454 11.3534 14.1286 11.3534 12.9454V10.5454C11.3534 10.5422 11.3534 10.539 11.3533 10.5358C11.5022 10.6082 11.666 10.6454 11.8201 10.6454C12.2699 10.6454 12.8034 10.3275 12.8034 9.74544C12.8034 8.50251 11.6197 7.64544 10.3701 7.64544C9.1204 7.64544 7.93672 8.50251 7.93672 9.74544C7.93672 10.3275 8.47018 10.6454 8.92005 10.6454ZM10.3701 9.64544C10.216 9.64544 10.0522 9.68272 9.90334 9.7551C9.90337 9.75189 9.90339 9.74867 9.90339 9.74544C9.90339 9.69753 9.92573 9.63127 10.0056 9.56519C10.0864 9.49833 10.2138 9.44544 10.3701 9.44544C10.5263 9.44544 10.6537 9.49833 10.7345 9.56519C10.8144 9.63127 10.8367 9.69753 10.8367 9.74544C10.8367 9.74867 10.8367 9.75189 10.8368 9.75511C10.6879 9.68272 10.5241 9.64544 10.3701 9.64544ZM18.5701 9.74544C18.5701 9.74867 18.5701 9.75189 18.5701 9.75511C18.4212 9.68272 18.2574 9.64544 18.1034 9.64544C17.9494 9.64544 17.7855 9.68272 17.6367 9.75511C17.6367 9.75189 17.6367 9.74867 17.6367 9.74544C17.6367 9.69753 17.6591 9.63127 17.7389 9.56519C17.8197 9.49833 17.9471 9.44544 18.1034 9.44544C18.2596 9.44544 18.3871 9.49833 18.4679 9.56519C18.5477 9.63127 18.5701 9.69753 18.5701 9.74544Z" fill="#F0EDED" stroke="#F0EDED"/>
</svg>
