<svg width="24" height="24" viewBox="0 0 24 24" fill="none" xmlns="http://www.w3.org/2000/svg">
<path d="M12 0.000138283C5.38312 0.000138283 0 5.38326 0 12C0 18.6168 5.38312 23.9999 12 23.9999C18.6169 23.9999 24 18.6168 24 12C24 5.38326 18.6169 0.000138283 12 0.000138283ZM12 22.5458C6.18501 22.5458 1.45411 17.815 1.45411 12C1.45411 6.18505 6.18501 1.45425 12 1.45425C17.815 1.45425 22.5459 6.18505 22.5459 12C22.5459 17.815 17.8151 22.5458 12 22.5458Z" fill="#D09C74"/>
<path d="M12.8979 11.9999L17 6.33575C17.2356 6.01052 17.1629 5.55596 16.8377 5.3204C16.5123 5.08493 16.058 5.15754 15.8223 5.48277L12.0002 10.7604L8.17784 5.48287C7.94227 5.15754 7.48762 5.08493 7.16248 5.32049C6.83734 5.55606 6.76464 6.01062 7.0001 6.33585L11.1023 12L7.0001 17.6642C6.76454 17.9895 6.83724 18.444 7.16248 18.6796C7.29141 18.773 7.44051 18.8178 7.58844 18.8178C7.81353 18.8178 8.03563 18.7135 8.17784 18.5172L12.0002 13.2396L15.8226 18.5172C15.9648 18.7135 16.1868 18.8178 16.412 18.8178C16.5598 18.8178 16.709 18.773 16.8378 18.6796C17.1631 18.444 17.2358 17.9895 17.0002 17.6642L12.8979 11.9999Z" fill="#D09C74"/>
</svg>
