<svg width="23" height="42" viewBox="0 0 23 42" fill="none" xmlns="http://www.w3.org/2000/svg">
<path d="M0.561456 22.3505L19.7282 41.4408C20.4766 42.1864 21.6902 42.1864 22.4387 41.4407C23.1871 40.6952 23.1871 39.4864 22.4386 38.7409L4.62723 21.0004L22.4387 3.25894C23.1871 2.51338 23.1871 1.30467 22.4386 0.559108C22.0645 0.186326 21.5739 -1.63691e-06 21.0834 -1.63691e-06C20.5928 -1.63691e-06 20.1023 0.186327 19.728 0.559236L0.561456 19.6506C0.201889 20.0086 -1.1514e-07 20.4942 -1.1514e-07 21.0005C-1.1514e-07 21.5068 0.201889 21.9924 0.561456 22.3505Z" fill="#FAF9F8"/>
</svg>
