<svg width="36" height="36" viewBox="0 0 36 36" fill="none" xmlns="http://www.w3.org/2000/svg">
<path d="M18 34.875C27.3198 34.875 34.875 27.3198 34.875 18C34.875 8.68019 27.3198 1.125 18 1.125C8.68019 1.125 1.125 8.68019 1.125 18C1.125 27.3198 8.68019 34.875 18 34.875Z" stroke="#545269" stroke-width="2" stroke-miterlimit="10" stroke-linejoin="round"/>
<path d="M29.25 30.375C29.25 24.1616 24.2134 19.125 18 19.125C11.7866 19.125 6.75 24.1616 6.75 30.375" stroke="#545269" stroke-width="2" stroke-miterlimit="10" stroke-linejoin="round"/>
<path d="M18 19.125C21.7279 19.125 24.75 16.1029 24.75 12.375C24.75 8.64708 21.7279 5.625 18 5.625C14.2721 5.625 11.25 8.64708 11.25 12.375C11.25 16.1029 14.2721 19.125 18 19.125Z" stroke="#545269" stroke-width="2" stroke-miterlimit="10" stroke-linejoin="round"/>
</svg>
