<svg width="33" height="33" viewBox="0 0 33 33" fill="none" xmlns="http://www.w3.org/2000/svg">
<path d="M8.24998 8.80001V5.41806L5.54453 8.80001H8.24998Z" fill="#BB9457"/>
<path d="M24.75 8.80001H27.4555L24.75 5.41806V8.80001Z" fill="#BB9457"/>
<path d="M9.23614 3.531C9.25594 3.5585 9.27739 3.58325 9.29169 3.6135C9.29609 3.62285 9.30324 3.63 9.30764 3.6399C9.31809 3.66465 9.31754 3.6916 9.32414 3.71745C9.33294 3.7521 9.34229 3.7851 9.34394 3.8203C9.34449 3.8302 9.34999 3.83955 9.34999 3.85V8.8H23.65V3.85C23.65 3.83955 23.6555 3.8302 23.656 3.8203C23.6582 3.7851 23.6676 3.7521 23.6758 3.71745C23.6824 3.6916 23.6819 3.6652 23.6923 3.6399C23.6962 3.63 23.7039 3.62285 23.7083 3.6135C23.7226 3.5838 23.744 3.5585 23.7638 3.531C23.7809 3.5079 23.7913 3.4804 23.8117 3.4606L27.2723 0H5.72769L9.18829 3.4606C9.20864 3.48095 9.21909 3.5079 9.23614 3.531Z" fill="#BB9457"/>
<path d="M28.8645 8.8H29.15V0H28.8277L24.937 3.8907L28.8645 8.8Z" fill="#BB9457"/>
<path d="M8.06298 3.8907L4.17228 0H3.84998V8.8H4.13543L8.06298 3.8907Z" fill="#BB9457"/>
<path d="M3.29999 9.35001V33H29.7V9.35001H3.29999ZM11 13.75C11 14.0542 10.7536 14.3 10.45 14.3C10.1464 14.3 9.89999 14.0542 9.89999 13.75C9.89999 12.5367 10.8867 11.55 12.1 11.55C13.3133 11.55 14.3 12.5367 14.3 13.75C14.3 14.0542 14.0536 14.3 13.75 14.3C13.4464 14.3 13.2 14.0542 13.2 13.75C13.2 13.1434 12.7066 12.65 12.1 12.65C11.4933 12.65 11 13.1434 11 13.75ZM21.45 18.15C21.45 20.8797 19.2291 23.1 16.5 23.1C13.7709 23.1 11.55 20.8797 11.55 18.15V14.85C11.55 14.5459 11.7964 14.3 12.1 14.3C12.4036 14.3 12.65 14.5459 12.65 14.85V18.15C12.65 20.2725 14.377 22 16.5 22C18.623 22 20.35 20.2725 20.35 18.15V14.85C20.35 14.5459 20.5964 14.3 20.9 14.3C21.2036 14.3 21.45 14.5459 21.45 14.85V18.15ZM22.55 14.3C22.2464 14.3 22 14.0542 22 13.75C22 13.1434 21.5066 12.65 20.9 12.65C20.2933 12.65 19.8 13.1434 19.8 13.75C19.8 14.0542 19.5536 14.3 19.25 14.3C18.9464 14.3 18.7 14.0542 18.7 13.75C18.7 12.5367 19.6867 11.55 20.9 11.55C22.1133 11.55 23.1 12.5367 23.1 13.75C23.1 14.0542 22.8536 14.3 22.55 14.3Z" fill="#BB9457"/>
</svg>
