<svg width="366" height="58" viewBox="0 0 366 58" fill="none" xmlns="http://www.w3.org/2000/svg">
<path d="M164.474 38.8985V11.6846H169.539V38.8985C169.539 41.4324 169.02 43.5705 167.983 45.3126C166.945 47.0547 165.512 48.3833 163.683 49.2984C161.871 50.1958 159.787 50.6445 157.431 50.6445C155.074 50.6445 152.981 50.2398 151.152 49.4303C149.323 48.6209 147.89 47.389 146.852 45.735C145.815 44.0808 145.296 41.9955 145.296 39.4792H150.387C150.387 41.0981 150.686 42.4267 151.284 43.4649C151.882 44.5031 152.709 45.2686 153.764 45.7613C154.837 46.254 156.059 46.5004 157.431 46.5004C158.767 46.5004 159.963 46.2188 161.018 45.6557C162.091 45.0751 162.935 44.2216 163.551 43.0953C164.166 41.9516 164.474 40.5526 164.474 38.8985Z" fill="#545269"/>
<path d="M192.367 44.0896H197.432C197.168 46.518 196.473 48.6913 195.348 50.6093C194.222 52.5274 192.631 54.0496 190.573 55.1758C188.515 56.2844 185.948 56.839 182.87 56.839C180.619 56.839 178.57 56.4166 176.723 55.5717C174.894 54.727 173.32 53.5304 172.001 51.9819C170.682 50.4157 169.662 48.5416 168.941 46.3596C168.238 44.16 167.886 41.714 167.886 39.0216V35.1943C167.886 32.5019 168.238 30.0647 168.941 27.8827C169.662 25.6831 170.691 23.8001 172.028 22.234C173.382 20.6679 175.009 19.4625 176.908 18.6178C178.807 17.7732 180.944 17.3508 183.318 17.3508C186.22 17.3508 188.674 17.8964 190.678 18.9874C192.683 20.0783 194.24 21.5918 195.348 23.5274C196.473 25.4455 197.168 27.6715 197.432 30.2055H192.367C192.121 28.4106 191.663 26.8709 190.995 25.5863C190.327 24.2841 189.377 23.2811 188.146 22.5772C186.915 21.8733 185.306 21.5214 183.318 21.5214C181.612 21.5214 180.109 21.8469 178.807 22.498C177.524 23.1491 176.442 24.0729 175.563 25.2695C174.701 26.4661 174.05 27.9003 173.611 29.572C173.171 31.2437 172.951 33.1002 172.951 35.1415V39.0216C172.951 40.9045 173.144 42.673 173.531 44.3272C173.936 45.9813 174.543 47.4331 175.352 48.6824C176.161 49.9318 177.189 50.9173 178.438 51.6387C179.687 52.3426 181.164 52.6946 182.87 52.6946C185.033 52.6946 186.757 52.3515 188.04 51.6651C189.324 50.9788 190.292 49.9934 190.942 48.7088C191.611 47.4243 192.085 45.8845 192.367 44.0896ZM208.564 15.7671V19.1457C208.564 20.2016 208.38 21.319 208.01 22.498C207.659 23.6594 207.14 24.7856 206.454 25.8766C205.768 26.95 204.941 27.8915 203.974 28.701L201.178 26.7741C202.004 25.6127 202.628 24.4249 203.051 23.2107C203.491 21.9788 203.71 20.6503 203.71 19.2249V15.7671H208.564ZM228.112 48.7352C228.112 48.0314 227.953 47.3802 227.637 46.7819C227.338 46.1661 226.714 45.6117 225.764 45.119C224.832 44.6087 223.425 44.1688 221.543 43.7992C219.96 43.4649 218.527 43.069 217.243 42.6115C215.977 42.1539 214.895 41.5996 213.998 40.9485C213.119 40.2974 212.442 39.5319 211.967 38.6521C211.492 37.7722 211.255 36.7428 211.255 35.5638C211.255 34.4376 211.501 33.373 211.994 32.37C212.504 31.3669 213.216 30.4783 214.131 29.704C215.062 28.9297 216.18 28.3226 217.481 27.8827C218.782 27.4428 220.233 27.2228 221.833 27.2228C224.12 27.2228 226.072 27.6275 227.69 28.437C229.308 29.2465 230.548 30.3287 231.409 31.6836C232.271 33.021 232.702 34.508 232.702 36.1445H227.822C227.822 35.3526 227.584 34.5872 227.109 33.8481C226.652 33.0914 225.975 32.4667 225.078 31.974C224.199 31.4813 223.118 31.235 221.833 31.235C220.479 31.235 219.38 31.4461 218.536 31.8684C217.709 32.2732 217.103 32.7923 216.716 33.4258C216.346 34.0593 216.162 34.728 216.162 35.4318C216.162 35.9598 216.249 36.4349 216.426 36.8572C216.619 37.2619 216.953 37.6403 217.428 37.9922C217.903 38.3266 218.571 38.6433 219.433 38.9424C220.295 39.2416 221.394 39.5408 222.73 39.8399C225.069 40.3678 226.995 41.0013 228.508 41.7404C230.02 42.4795 231.146 43.3857 231.884 44.4591C232.623 45.5326 232.992 46.8348 232.992 48.3657C232.992 49.6151 232.729 50.7589 232.201 51.7971C231.691 52.8353 230.943 53.7328 229.959 54.4895C228.991 55.2285 227.831 55.8093 226.476 56.2316C225.14 56.6362 223.636 56.839 221.965 56.839C219.45 56.839 217.323 56.3902 215.581 55.4925C213.84 54.595 212.522 53.4336 211.624 52.0083C210.727 50.5829 210.279 49.0783 210.279 47.4947H215.186C215.256 48.832 215.643 49.8966 216.346 50.6885C217.05 51.4628 217.912 52.0171 218.932 52.3515C219.952 52.6681 220.963 52.8265 221.965 52.8265C223.302 52.8265 224.419 52.6506 225.316 52.2986C226.23 51.9467 226.925 51.4628 227.4 50.8469C227.875 50.231 228.112 49.5271 228.112 48.7352Z" fill="#545269"/>
<path d="M15.0568 42.3711V24.4062H17.2189V42.3711C17.2189 44.0938 16.879 45.5469 16.1993 46.7305C15.5314 47.9141 14.6173 48.8164 13.4572 49.4375C12.297 50.0469 10.9728 50.3516 9.4845 50.3516C7.96106 50.3516 6.6134 50.082 5.44153 49.543C4.28137 49.0039 3.37903 48.1895 2.7345 47.0996C2.08997 45.998 1.7677 44.6094 1.7677 42.9336H3.92981C3.92981 44.1641 4.14661 45.1953 4.5802 46.0273C5.02551 46.8477 5.66418 47.4688 6.49622 47.8906C7.32825 48.3008 8.32434 48.5059 9.4845 48.5059C10.5275 48.5059 11.465 48.2773 12.297 47.8203C13.1407 47.3516 13.8087 46.666 14.3009 45.7637C14.8048 44.8496 15.0568 43.7188 15.0568 42.3711ZM21.9298 40.7891V40.209C21.9298 38.8262 22.129 37.5488 22.5275 36.377C22.9259 35.2051 23.4943 34.1914 24.2325 33.3359C24.9825 32.4805 25.879 31.8184 26.922 31.3496C27.965 30.8691 29.1251 30.6289 30.4025 30.6289C31.6915 30.6289 32.8575 30.8691 33.9005 31.3496C34.9435 31.8184 35.84 32.4805 36.59 33.3359C37.34 34.1914 37.9142 35.2051 38.3126 36.377C38.7111 37.5488 38.9103 38.8262 38.9103 40.209V40.7891C38.9103 42.1719 38.7111 43.4492 38.3126 44.6211C37.9142 45.7812 37.34 46.7891 36.59 47.6445C35.8517 48.5 34.9611 49.168 33.9181 49.6484C32.8751 50.1172 31.715 50.3516 30.4376 50.3516C29.1486 50.3516 27.9825 50.1172 26.9396 49.6484C25.8966 49.168 25.0001 48.5 24.2501 47.6445C23.5001 46.7891 22.9259 45.7812 22.5275 44.6211C22.129 43.4492 21.9298 42.1719 21.9298 40.7891ZM24.0216 40.209V40.7891C24.0216 41.832 24.1622 42.8223 24.4435 43.7598C24.7247 44.6855 25.1349 45.5117 25.674 46.2383C26.213 46.9531 26.881 47.5156 27.6779 47.9258C28.4747 48.3359 29.3947 48.541 30.4376 48.541C31.4689 48.541 32.3771 48.3359 33.1622 47.9258C33.9591 47.5156 34.6271 46.9531 35.1661 46.2383C35.7052 45.5117 36.1095 44.6855 36.379 43.7598C36.6603 42.8223 36.8009 41.832 36.8009 40.7891V40.209C36.8009 39.1777 36.6603 38.1992 36.379 37.2734C36.1095 36.3477 35.6993 35.5215 35.1486 34.7949C34.6095 34.0684 33.9415 33.4941 33.1447 33.0723C32.3478 32.6504 31.4337 32.4395 30.4025 32.4395C29.3712 32.4395 28.4572 32.6504 27.6603 33.0723C26.8751 33.4941 26.2072 34.0684 25.6564 34.7949C25.1173 35.5215 24.7072 36.3477 24.4259 37.2734C24.1564 38.1992 24.0216 39.1777 24.0216 40.209ZM45.3615 23V50H43.2697V23H45.3615ZM44.8868 39.3125L43.9552 38.7852C44.0255 37.6602 44.254 36.6055 44.6407 35.6211C45.0275 34.6367 45.549 33.7695 46.2052 33.0195C46.8732 32.2695 47.6525 31.6836 48.5431 31.2617C49.4454 30.8398 50.4415 30.6289 51.5314 30.6289C52.4806 30.6289 53.3302 30.7578 54.0802 31.0156C54.8302 31.2734 55.4689 31.6836 55.9962 32.2461C56.5236 32.8086 56.922 33.5293 57.1915 34.4082C57.4728 35.2871 57.6134 36.3594 57.6134 37.625V50H55.504V37.6074C55.504 36.2949 55.3224 35.2695 54.9591 34.5312C54.5958 33.7812 54.0802 33.248 53.4122 32.9316C52.7443 32.6152 51.9532 32.457 51.0392 32.457C50.0314 32.457 49.1466 32.6797 48.3849 33.125C47.6349 33.5586 47.0021 34.127 46.4865 34.8301C45.9825 35.5215 45.5958 36.2656 45.3263 37.0625C45.0568 37.8477 44.9103 38.5977 44.8868 39.3125ZM65.1193 35.041V50H63.0275V30.9805H65.0314L65.1193 35.041ZM64.6447 39.3125L63.713 38.7852C63.7833 37.6602 64.0118 36.6055 64.3986 35.6211C64.7853 34.6367 65.3068 33.7695 65.963 33.0195C66.631 32.2695 67.4103 31.6836 68.3009 31.2617C69.2032 30.8398 70.1993 30.6289 71.2892 30.6289C72.2384 30.6289 73.088 30.7578 73.838 31.0156C74.588 31.2734 75.2267 31.6836 75.754 32.2461C76.2814 32.8086 76.6798 33.5293 76.9493 34.4082C77.2306 35.2871 77.3712 36.3594 77.3712 37.625V50H75.2618V37.6074C75.2618 36.2949 75.0802 35.2695 74.7169 34.5312C74.3536 33.7812 73.838 33.248 73.17 32.9316C72.5021 32.6152 71.7111 32.457 70.797 32.457C69.7892 32.457 68.9044 32.6797 68.1427 33.125C67.3927 33.5586 66.7599 34.127 66.2443 34.8301C65.7404 35.5215 65.3536 36.2656 65.0841 37.0625C64.8146 37.8477 64.6681 38.5977 64.6447 39.3125ZM84.9122 35.041V50H82.8204V30.9805H84.8243L84.9122 35.041ZM84.4376 39.3125L83.506 38.7852C83.5763 37.6602 83.8048 36.6055 84.1915 35.6211C84.5782 34.6367 85.0997 33.7695 85.756 33.0195C86.424 32.2695 87.2032 31.6836 88.0939 31.2617C88.9962 30.8398 89.9923 30.6289 91.0822 30.6289C92.0314 30.6289 92.881 30.7578 93.631 31.0156C94.381 31.2734 95.0197 31.6836 95.547 32.2461C96.0743 32.8086 96.4728 33.5293 96.7423 34.4082C97.0236 35.2871 97.1642 36.3594 97.1642 37.625V50H95.0548V37.6074C95.0548 36.2949 94.8732 35.2695 94.5099 34.5312C94.1466 33.7812 93.631 33.248 92.963 32.9316C92.295 32.6152 91.504 32.457 90.59 32.457C89.5822 32.457 88.6974 32.6797 87.9357 33.125C87.1857 33.5586 86.5529 34.127 86.0372 34.8301C85.5333 35.5215 85.1466 36.2656 84.8771 37.0625C84.6075 37.8477 84.4611 38.5977 84.4376 39.3125ZM108.256 48.1016L114.18 30.9805H116.447L108.397 53.0586C108.233 53.4922 108.022 53.9727 107.764 54.5C107.518 55.0273 107.19 55.5312 106.779 56.0117C106.381 56.5039 105.877 56.9023 105.268 57.207C104.67 57.5234 103.938 57.6816 103.07 57.6816C102.848 57.6816 102.561 57.6523 102.209 57.5938C101.869 57.5469 101.623 57.5 101.471 57.4531L101.453 55.6777C101.582 55.7129 101.77 55.7422 102.016 55.7656C102.262 55.7891 102.432 55.8008 102.526 55.8008C103.287 55.8008 103.926 55.6719 104.442 55.4141C104.969 55.1562 105.408 54.7695 105.76 54.2539C106.111 53.75 106.422 53.1172 106.692 52.3555L108.256 48.1016ZM102.719 30.9805L108.783 47.3105L109.346 49.5078L107.817 50.3691L100.434 30.9805H102.719Z" fill="#545269"/>
<path d="M287.436 42.0195H289.598C289.422 43.7422 288.948 45.2305 288.174 46.4844C287.401 47.7266 286.346 48.6816 285.01 49.3496C283.674 50.0176 282.063 50.3516 280.176 50.3516C278.723 50.3516 277.405 50.0762 276.221 49.5254C275.049 48.9746 274.041 48.1953 273.198 47.1875C272.354 46.168 271.704 44.9492 271.247 43.5312C270.789 42.1133 270.561 40.5371 270.561 38.8027V35.6035C270.561 33.8691 270.789 32.2988 271.247 30.8926C271.704 29.4746 272.36 28.2559 273.215 27.2363C274.071 26.2168 275.096 25.4316 276.291 24.8809C277.487 24.3301 278.834 24.0547 280.334 24.0547C282.151 24.0547 283.721 24.3887 285.045 25.0566C286.37 25.7129 287.413 26.6621 288.174 27.9043C288.948 29.1465 289.422 30.6465 289.598 32.4043H287.436C287.272 31.0215 286.909 29.8496 286.346 28.8887C285.784 27.9277 285.004 27.1953 284.008 26.6914C283.024 26.1758 281.799 25.918 280.334 25.918C279.139 25.918 278.073 26.1465 277.135 26.6035C276.198 27.0605 275.401 27.7168 274.745 28.5723C274.088 29.416 273.584 30.4297 273.233 31.6133C272.893 32.7969 272.723 34.1152 272.723 35.5684V38.8027C272.723 40.209 272.887 41.5039 273.215 42.6875C273.543 43.8711 274.024 44.8965 274.657 45.7637C275.301 46.6309 276.086 47.3047 277.012 47.7852C277.938 48.2656 278.993 48.5059 280.176 48.5059C281.688 48.5059 282.948 48.2656 283.956 47.7852C284.975 47.293 285.766 46.5664 286.329 45.6055C286.891 44.6445 287.26 43.4492 287.436 42.0195ZM293.219 40.7891V40.209C293.219 38.8262 293.418 37.5488 293.817 36.377C294.215 35.2051 294.784 34.1914 295.522 33.3359C296.272 32.4805 297.168 31.8184 298.211 31.3496C299.254 30.8691 300.414 30.6289 301.692 30.6289C302.981 30.6289 304.147 30.8691 305.19 31.3496C306.233 31.8184 307.129 32.4805 307.879 33.3359C308.629 34.1914 309.204 35.2051 309.602 36.377C310 37.5488 310.2 38.8262 310.2 40.209V40.7891C310.2 42.1719 310 43.4492 309.602 44.6211C309.204 45.7812 308.629 46.7891 307.879 47.6445C307.141 48.5 306.25 49.168 305.207 49.6484C304.164 50.1172 303.004 50.3516 301.727 50.3516C300.438 50.3516 299.272 50.1172 298.229 49.6484C297.186 49.168 296.289 48.5 295.539 47.6445C294.789 46.7891 294.215 45.7812 293.817 44.6211C293.418 43.4492 293.219 42.1719 293.219 40.7891ZM295.311 40.209V40.7891C295.311 41.832 295.452 42.8223 295.733 43.7598C296.014 44.6855 296.424 45.5117 296.963 46.2383C297.502 46.9531 298.17 47.5156 298.967 47.9258C299.764 48.3359 300.684 48.541 301.727 48.541C302.758 48.541 303.666 48.3359 304.452 47.9258C305.248 47.5156 305.916 46.9531 306.456 46.2383C306.995 45.5117 307.399 44.6855 307.668 43.7598C307.95 42.8223 308.09 41.832 308.09 40.7891V40.209C308.09 39.1777 307.95 38.1992 307.668 37.2734C307.399 36.3477 306.989 35.5215 306.438 34.7949C305.899 34.0684 305.231 33.4941 304.434 33.0723C303.637 32.6504 302.723 32.4395 301.692 32.4395C300.661 32.4395 299.747 32.6504 298.95 33.0723C298.164 33.4941 297.497 34.0684 296.946 34.7949C296.407 35.5215 295.997 36.3477 295.715 37.2734C295.446 38.1992 295.311 39.1777 295.311 40.209ZM316.651 34.127V50H314.559V30.9805H316.598L316.651 34.127ZM323.383 30.8398L323.331 32.7734C323.096 32.7383 322.868 32.709 322.645 32.6855C322.422 32.6621 322.182 32.6504 321.924 32.6504C321.01 32.6504 320.207 32.8203 319.516 33.1602C318.836 33.4883 318.262 33.9512 317.793 34.5488C317.325 35.1348 316.967 35.8262 316.721 36.623C316.475 37.4082 316.334 38.252 316.299 39.1543L315.526 39.4531C315.526 38.2109 315.655 37.0566 315.913 35.9902C316.17 34.9238 316.563 33.9922 317.09 33.1953C317.629 32.3867 318.303 31.7598 319.112 31.3145C319.932 30.8574 320.893 30.6289 321.995 30.6289C322.264 30.6289 322.528 30.6523 322.786 30.6992C323.055 30.7344 323.254 30.7812 323.383 30.8398ZM337.551 46.5898V36.7812C337.551 35.8789 337.364 35.0996 336.989 34.4434C336.614 33.7871 336.063 33.2832 335.336 32.9316C334.61 32.5801 333.713 32.4043 332.647 32.4043C331.663 32.4043 330.784 32.5801 330.01 32.9316C329.248 33.2715 328.645 33.7344 328.2 34.3203C327.766 34.8945 327.549 35.5332 327.549 36.2363L325.44 36.2188C325.44 35.5039 325.616 34.8125 325.967 34.1445C326.319 33.4766 326.817 32.8789 327.461 32.3516C328.106 31.8242 328.873 31.4082 329.764 31.1035C330.666 30.7871 331.657 30.6289 332.735 30.6289C334.094 30.6289 335.289 30.8574 336.321 31.3145C337.364 31.7715 338.178 32.457 338.764 33.3711C339.35 34.2852 339.643 35.4336 339.643 36.8164V46.0098C339.643 46.666 339.69 47.3457 339.784 48.0488C339.889 48.752 340.036 49.332 340.223 49.7891V50H337.991C337.85 49.5781 337.739 49.0508 337.657 48.418C337.586 47.7734 337.551 47.1641 337.551 46.5898ZM338.043 38.9258L338.079 40.543H333.948C332.87 40.543 331.903 40.6426 331.047 40.8418C330.204 41.0293 329.489 41.3105 328.903 41.6855C328.317 42.0488 327.866 42.4883 327.549 43.0039C327.245 43.5195 327.092 44.1055 327.092 44.7617C327.092 45.4414 327.262 46.0625 327.602 46.625C327.954 47.1875 328.446 47.6387 329.079 47.9785C329.723 48.3066 330.485 48.4707 331.364 48.4707C332.536 48.4707 333.567 48.2539 334.457 47.8203C335.36 47.3867 336.104 46.8184 336.69 46.1152C337.276 45.4121 337.668 44.6445 337.868 43.8125L338.782 45.0254C338.629 45.6113 338.348 46.2148 337.938 46.8359C337.539 47.4453 337.018 48.0195 336.373 48.5586C335.729 49.0859 334.967 49.5195 334.088 49.8594C333.221 50.1875 332.237 50.3516 331.135 50.3516C329.893 50.3516 328.809 50.1172 327.883 49.6484C326.969 49.1797 326.254 48.541 325.739 47.7324C325.235 46.9121 324.983 45.9863 324.983 44.9551C324.983 44.0176 325.182 43.1797 325.581 42.4414C325.979 41.6914 326.553 41.0586 327.303 40.543C328.065 40.0156 328.979 39.6172 330.045 39.3477C331.123 39.0664 332.331 38.9258 333.666 38.9258H338.043ZM347.623 23V50H345.532V23H347.623Z" fill="#545269"/>
</svg>
