<svg width="196" height="117" viewBox="0 0 196 117" fill="none" xmlns="http://www.w3.org/2000/svg">
<path d="M23.5781 101.984C19.7969 101.984 16.3594 101.234 13.2656 99.7344C10.2031 98.2344 7.73438 95.9688 5.85938 92.9375C4.01562 89.9062 3 86.1094 2.8125 81.5469L2.90625 81.2656H11.7656C11.8906 85.8594 12.9375 89.2344 14.9062 91.3906C16.9062 93.5469 19.75 94.625 23.4375 94.625C26.0312 94.625 28.1562 94.0781 29.8125 92.9844C31.4688 91.8594 32.6875 90.3281 33.4688 88.3906C34.2812 86.4219 34.6875 84.1719 34.6875 81.6406V40.0156L25.5938 38.7969V32.75H51.5625V38.7031L43.9219 40.0156V81.6406C43.9219 85.7031 43.1406 89.2656 41.5781 92.3281C40.0469 95.3906 37.7656 97.7656 34.7344 99.4531C31.7344 101.141 28.0156 101.984 23.5781 101.984Z" fill="#6C9A8B"/>
<path d="M71.6406 113.984C64.7969 113.984 59.0781 112.484 54.4844 109.484C49.9219 106.484 46.4844 102.375 44.1719 97.1562C41.8906 91.9375 40.75 86.0156 40.75 79.3906V78.4062C40.75 71.7188 41.9531 65.7812 44.3594 60.5938C46.7656 55.375 50.2188 51.2656 54.7188 48.2656C59.2188 45.2656 64.5938 43.7656 70.8438 43.7656C75.25 43.7656 79.2812 44.4531 82.9375 45.8281C86.5938 47.2031 89.625 48.9531 92.0312 51.0781V65.7969H84.6719L83.6875 55.0156C82.6875 54.2344 81.5312 53.5781 80.2188 53.0469C78.9375 52.5156 77.5 52.1094 75.9062 51.8281C74.3438 51.5469 72.6406 51.4062 70.7969 51.4062C66.3281 51.4062 62.5469 52.5625 59.4531 54.875C56.3594 57.1562 54.0156 60.3125 52.4219 64.3438C50.8281 68.375 50.0312 73.0312 50.0312 78.3125V79.3906C50.0312 85.1094 50.875 90 52.5625 94.0625C54.2812 98.0938 56.7656 101.172 60.0156 103.297C63.2969 105.422 67.2812 106.484 71.9688 106.484C74.1562 106.484 76.2969 106.219 78.3906 105.688C80.4844 105.156 82.2188 104.469 83.5938 103.625L84.625 94.1094H91.8438V108.922C89.2812 110.516 86.2188 111.766 82.6562 112.672C79.0938 113.547 75.4219 113.984 71.6406 113.984ZM104.828 66.4531L99.5781 62.9844C101.047 60.7656 102.156 58.5 102.906 56.1875C103.656 53.8438 104.031 51.3281 104.031 48.6406V39.875H113.266V48.5C113.266 50.5938 112.922 52.75 112.234 54.9688C111.547 57.1875 110.562 59.2969 109.281 61.2969C108.031 63.2969 106.547 65.0156 104.828 66.4531ZM137.312 113.984C133.906 113.984 130.719 113.641 127.75 112.953C124.781 112.266 121.625 111.203 118.281 109.766L118.188 97.7188H125.172L126.906 104.984C128.656 105.703 130.344 106.234 131.969 106.578C133.625 106.891 135.406 107.047 137.312 107.047C141.062 107.047 143.75 106.328 145.375 104.891C147 103.453 147.812 101.672 147.812 99.5469C147.812 97.5469 146.984 95.8594 145.328 94.4844C143.703 93.0781 140.734 91.8906 136.422 90.9219C130.297 89.5156 125.781 87.6406 122.875 85.2969C120 82.9219 118.562 79.7656 118.562 75.8281C118.562 73.0781 119.359 70.625 120.953 68.4688C122.547 66.2812 124.766 64.5469 127.609 63.2656C130.453 61.9844 133.766 61.3438 137.547 61.3438C141.391 61.3438 144.672 61.7812 147.391 62.6562C150.141 63.5312 152.531 64.7031 154.562 66.1719L155.031 77.75H148.094L146.594 71C145.5 70.1875 144.203 69.5625 142.703 69.125C141.203 68.6875 139.484 68.4688 137.547 68.4688C134.672 68.4688 132.328 69.1406 130.516 70.4844C128.734 71.8281 127.844 73.5156 127.844 75.5469C127.844 76.7344 128.094 77.7656 128.594 78.6406C129.125 79.5156 130.125 80.3125 131.594 81.0312C133.062 81.7188 135.219 82.4062 138.062 83.0938C145.125 84.75 150.047 86.8594 152.828 89.4219C155.641 91.9844 157.047 95.1406 157.047 98.8906C157.047 103.172 155.453 106.766 152.266 109.672C149.109 112.547 144.125 113.984 137.312 113.984Z" fill="#545269"/>
</svg>
