<svg width="41" height="40" viewBox="0 0 41 40" fill="none" xmlns="http://www.w3.org/2000/svg">
<path d="M10.7001 21.304H15.0969V39.3548C15.0969 39.7112 15.3865 40 15.7438 40H23.1987C23.5561 40 23.8457 39.7112 23.8457 39.3548V21.389H28.9001C29.2288 21.389 29.5053 21.1431 29.5428 20.8175L30.3105 14.1721C30.3316 13.9893 30.2735 13.8062 30.1508 13.669C30.028 13.5317 29.8523 13.4532 29.6679 13.4532H23.8459V9.28748C23.8459 8.03174 24.5239 7.39497 25.8613 7.39497C26.0519 7.39497 29.6679 7.39497 29.6679 7.39497C30.0253 7.39497 30.3149 7.10606 30.3149 6.74981V0.649935C30.3149 0.293548 30.0253 0.00477419 29.6679 0.00477419H24.4218C24.3848 0.00296774 24.3027 0 24.1816 0C23.2713 0 20.1073 0.178193 17.6081 2.4711C14.8389 5.012 15.2238 8.05432 15.3158 8.58181V13.453H10.7001C10.3427 13.453 10.0532 13.7418 10.0532 14.0982V20.6587C10.0532 21.0151 10.3427 21.304 10.7001 21.304Z" fill="#545269"/>
</svg>
