<svg width="42" height="40" viewBox="0 0 42 40" fill="none" xmlns="http://www.w3.org/2000/svg">
<g clip-path="url(#clip0_9_42)">
<path d="M29.0978 0H12.8856C6.29675 0 0.936371 5.34559 0.936371 11.9162V28.0838C0.936371 34.6544 6.29675 40 12.8856 40H29.0978C35.6866 40 41.047 34.6544 41.047 28.0838V11.9162C41.0469 5.34559 35.6866 0 29.0978 0ZM37.0119 28.0838C37.0119 32.4425 33.4686 35.976 29.0978 35.976H12.8856C8.51478 35.976 4.9715 32.4425 4.9715 28.0838V11.9162C4.9715 7.55743 8.51478 4.024 12.8856 4.024H29.0978C33.4686 4.024 37.0119 7.55743 37.0119 11.9162V28.0838Z" fill="#545269"/>
<path d="M20.9917 9.65479C15.2714 9.65479 10.6177 14.2957 10.6177 20.0001C10.6177 25.7045 15.2714 30.3456 20.9917 30.3456C26.7119 30.3456 31.3657 25.7046 31.3657 20.0001C31.3657 14.2957 26.7119 9.65479 20.9917 9.65479ZM20.9917 26.3216C17.4908 26.3216 14.6528 23.4915 14.6528 20.0002C14.6528 16.509 17.4909 13.6788 20.9917 13.6788C24.4926 13.6788 27.3306 16.509 27.3306 20.0002C27.3306 23.4914 24.4925 26.3216 20.9917 26.3216Z" fill="#545269"/>
<path d="M31.3855 12.2112C32.7584 12.2112 33.8713 11.1014 33.8713 9.73232C33.8713 8.36326 32.7584 7.25342 31.3855 7.25342C30.0127 7.25342 28.8998 8.36326 28.8998 9.73232C28.8998 11.1014 30.0127 12.2112 31.3855 12.2112Z" fill="#545269"/>
</g>
<defs>
<clipPath id="clip0_9_42">
<rect width="40.1106" height="40" fill="white" transform="translate(0.936371)"/>
</clipPath>
</defs>
</svg>
