<svg width="41" height="40" viewBox="0 0 41 40" fill="none" xmlns="http://www.w3.org/2000/svg">
<g clip-path="url(#clip0_9_84)">
<path d="M20.8554 0C9.7899 0 0.82016 8.945 0.82016 19.9783C0.82016 28.4433 6.09805 35.6733 13.5519 38.5817C13.3765 37 13.2194 34.5767 13.6205 32.85C13.9865 31.2883 15.9703 22.9217 15.9703 22.9217C15.9703 22.9217 15.3703 21.7217 15.3703 19.9533C15.3703 17.1817 16.9864 15.1017 18.9936 15.1017C20.705 15.1017 21.5306 16.3833 21.5306 17.915C21.5306 19.63 20.4393 22.1933 19.8727 24.5683C19.3964 26.5567 20.8755 28.1767 22.8392 28.1767C26.3957 28.1767 29.1366 24.435 29.1366 19.0317C29.1366 14.2633 25.6888 10.9167 20.7669 10.9167C15.0678 10.9167 11.7269 15.1867 11.7269 19.5817C11.7269 21.3033 12.3854 23.1533 13.2127 24.15C13.3781 24.35 13.3999 24.525 13.3547 24.725C13.2043 25.35 12.8651 26.7233 12.7965 26.9967C12.708 27.3717 12.5091 27.4483 12.1263 27.2717C9.62779 26.1217 8.06013 22.475 8.06013 19.5283C8.06013 13.235 12.6528 7.44167 21.2966 7.44167C28.2458 7.44167 33.6507 12.3867 33.6507 18.98C33.6507 25.8717 29.2937 31.4167 23.2337 31.4167C21.2047 31.4167 19.2995 30.3683 18.6243 29.1183L17.3725 33.865C16.9229 35.6067 15.6945 37.785 14.8689 39.1083C16.7458 39.6833 18.7229 40 20.8019 40C31.8441 40 40.8322 31.0583 40.8322 20.0217C40.8322 8.98333 31.8441 0.0433333 20.8019 0.0433333L20.8554 0Z" fill="#545269"/>
</g>
<defs>
<clipPath id="clip0_9_84">
<rect width="40.1106" height="40" fill="white" transform="translate(0.771759)"/>
</clipPath>
</defs>
</svg>
