<svg width="41" height="40" viewBox="0 0 41 40" fill="none" xmlns="http://www.w3.org/2000/svg">
<g clip-path="url(#clip0_9_24)">
<path d="M39.7338 7.40497C39.1037 7.68368 38.4558 7.91891 37.7939 8.10988C38.5776 7.226 39.1751 6.186 39.5398 5.04794C39.6216 4.79284 39.5369 4.51362 39.3266 4.34678C39.1166 4.17981 38.8248 4.15981 38.5936 4.29646C37.1878 5.12794 35.6711 5.72549 34.0808 6.07491C32.4788 4.51388 30.303 3.62549 28.0537 3.62549C23.3058 3.62549 19.443 7.47749 19.443 12.2122C19.443 12.5851 19.4667 12.9559 19.5135 13.3216C13.6218 12.8057 8.14433 9.91788 4.38298 5.31671C4.24894 5.15271 4.04243 5.06433 3.83101 5.08123C3.61946 5.09775 3.42938 5.21671 3.32251 5.39955C2.55963 6.70497 2.15632 8.198 2.15632 9.7171C2.15632 11.7861 2.89708 13.7492 4.20559 15.2832C3.80772 15.1457 3.42162 14.974 3.05312 14.77C2.85529 14.6602 2.61384 14.6619 2.4173 14.7743C2.22063 14.8867 2.09732 15.0934 2.09215 15.3193C2.09124 15.3574 2.09124 15.3954 2.09124 15.434C2.09124 18.5224 3.75803 21.3029 6.30635 22.8184C6.08743 22.7966 5.86863 22.765 5.65126 22.7236C5.42715 22.6808 5.19671 22.7592 5.04559 22.9296C4.8942 23.0999 4.84413 23.3374 4.91387 23.5541C5.85711 26.4909 8.28562 28.651 11.2215 29.3096C8.78649 30.8305 6.0019 31.6272 3.07874 31.6272C2.4688 31.6272 1.85537 31.5914 1.255 31.5206C0.956757 31.4852 0.671583 31.6608 0.570012 31.9437C0.468442 32.2267 0.576094 32.5421 0.829826 32.7043C4.58509 35.1055 8.92726 36.3747 13.3867 36.3747C22.1533 36.3747 27.6375 32.2521 30.6943 28.7936C34.5061 24.4812 36.6922 18.7732 36.6922 13.1334C36.6922 12.8977 36.6886 12.6598 36.6814 12.4227C38.1853 11.2927 39.4801 9.92523 40.5337 8.35349C40.6937 8.11478 40.6764 7.7993 40.491 7.57955C40.3058 7.35968 39.9972 7.28859 39.7338 7.40497Z" fill="#545269"/>
</g>
<defs>
<clipPath id="clip0_9_24">
<rect width="40.1106" height="40" fill="white" transform="translate(0.532501)"/>
</clipPath>
</defs>
</svg>
