<svg width="41" height="50" viewBox="0 0 41 50" fill="none" xmlns="http://www.w3.org/2000/svg">
<g clip-path="url(#clip0_9_62)">
<path d="M38.9013 10.4264C37.4535 8.28092 34.7803 7.40576 29.6751 7.40576H11.1433C5.92132 7.40576 3.20286 8.33738 1.76043 10.6216C0.354095 12.8487 0.354095 16.1301 0.354095 20.6717V29.328C0.354095 38.1266 2.0227 42.5938 11.1433 42.5938H29.6752C34.1024 42.5938 36.5556 41.8216 38.1427 39.9282C39.7703 37.9866 40.4647 34.8164 40.4647 29.328V20.6717C40.4647 15.8822 40.3559 12.5814 38.9013 10.4264ZM26.1053 26.195L17.69 31.6774C17.5019 31.8 17.2962 31.8608 17.0907 31.8608C16.8581 31.8608 16.626 31.7827 16.4204 31.6275C16.0332 31.3351 15.7968 30.8121 15.7968 30.2479V19.3182C15.7968 18.755 16.0326 18.2324 16.4189 17.9398C16.8054 17.6472 17.2861 17.6272 17.6871 17.8869L26.1023 23.334C26.5304 23.6111 26.7993 24.1621 26.8 24.7632C26.8005 25.3648 26.5328 25.9166 26.1053 26.195Z" fill="#545269"/>
</g>
<defs>
<clipPath id="clip0_9_62">
<rect width="40.1106" height="50" fill="white" transform="translate(0.354095)"/>
</clipPath>
</defs>
</svg>
